<?xml version="1.0" standalone="no"?>
<!DOCTYPE svg PUBLIC "-//W3C//DTD SVG 20010904//EN"
 "http://www.w3.org/TR/2001/REC-SVG-20010904/DTD/svg10.dtd">
<svg version="1.0" xmlns="http://www.w3.org/2000/svg"
 width="700.000000pt" height="700.000000pt" viewBox="0 0 700.000000 700.000000"
 preserveAspectRatio="xMidYMid meet">
<metadata>
Created by potrace 1.11, written by Peter Selinger 2001-2013
</metadata>
<g transform="translate(0.000000,700.000000) scale(0.100000,-0.100000)"
fill="#000000" stroke="none">
<path d="M349 6658 c-3 -41 -4 -1025 -1 -1035 5 -17 702 -17 703 0 0 7 2 83 2
169 1 86 5 160 9 163 4 4 434 8 955 8 l948 0 3 -962 2 -961 23 -1 c25 0 993 0
1020 1 16 0 17 53 17 960 0 907 1 960 18 961 22 0 1827 0 1868 0 l30 -1 0
-172 0 -173 352 -2 c329 -3 352 -2 353 15 3 56 4 1019 1 1030 -3 9 -643 12
-3153 12 -2512 0 -3149 -3 -3150 -12z"/>
<path d="M1225 3518 l0 -2273 788 -1 787 -1 0 348 c0 326 -1 349 -17 350 -10
0 -168 0 -350 0 l-333 0 0 613 0 612 1138 0 1139 -1 261 -261 262 -261 0 -351
0 -351 -257 0 c-142 0 -300 0 -350 0 l-93 -1 0 -349 0 -349 788 2 787 1 1 870
1 870 -264 265 -263 265 263 263 262 263 0 875 0 874 -787 0 -788 0 0 -350 0
-350 350 0 350 0 0 -349 0 -349 -264 -264 -264 -263 -1119 2 c-615 0 -1126 1
-1135 2 -17 1 -18 37 -18 611 l0 610 350 0 350 0 0 350 0 350 -788 0 -787 0 0
-2272z"/>
<path d="M2974 2991 c-2 -2 -4 -436 -4 -963 l0 -958 -435 0 c-341 0 -435 -3
-436 -12 -1 -7 -2 -167 -3 -354 l-1 -341 1402 0 c1280 0 1402 1 1405 16 2 9 3
167 3 351 l0 335 -438 3 -437 2 0 963 0 962 -526 0 c-289 0 -527 -1 -530 -4z"/>
</g>
</svg>
