<svg xmlns="http://www.w3.org/2000/svg" role="img" viewBox="0 0 640 512">
  <style type="text/css">
    <![CDATA[
      path { display: none; }
      path:target { display: inline; }
    ]]>
  </style>
  <path id="search" d="M508.5 481.6l-129-129c-2.3-2.3-5.3-3.5-8.5-3.5h-10.3C395 312 416 262.5 416 208 416 93.1 322.9 0 208 0S0 93.1 0 208s93.1 208 208 208c54.5 0 104-21 141.1-55.2V371c0 3.2 1.3 6.2 3.5 8.5l129 129c4.7 4.7 12.3 4.7 17 0l9.9-9.9c4.7-4.7 4.7-12.3 0-17zM208 384c-97.3 0-176-78.7-176-176S110.7 32 208 32s176 78.7 176 176-78.7 176-176 176z"/>
  <path id="feet" d="M491.42 7.7C468.38 2.4 444.87 0 421.3 0c-9.15 0-18.31.36-27.46 1.05-27.3 2.07-54.1 8.33-80.31 16.12L256 32h-64c-35.35 0-64 32.98-64 70.86 0 37.87 28.65 68.57 64 68.57h64c60.2 0 79.94 16.73 104.73 34.29C389.3 225.94 430.54 240 465.46 240 555.82 240 640 205.71 640 137.14 640 88.69 600.9 32.89 491.42 7.7zM240 123.43h-48c-8.67 0-16-9.42-16-20.57C176 90.2 184.75 80 192 80h48v43.43zM465.46 192c-24.16 0-55.82-10.47-76.99-25.46l-4.08-2.91c-20.96-14.97-46.54-32.83-96.38-38.35V73.32l37.51-9.66.86-.22.85-.25c27.53-8.19 49.85-12.72 70.26-14.27 7.94-.6 15.88-.92 23.83-.92 20.71 0 40.69 2.18 59.36 6.48C562.75 73.37 592 109.57 592 137.14c0 34.34-64.34 54.86-126.54 54.86zm-128 80c-34.91 0-76.16 14.06-104.73 34.29-24.79 17.55-44.52 34.29-104.73 34.29H64c-35.35 0-64 30.7-64 68.57S28.65 480 64 480h64l57.53 14.82c26.21 7.79 53.01 14.05 80.31 16.12 9.14.69 18.31 1.05 27.46 1.05 23.57 0 47.09-2.4 70.12-7.7C472.9 479.11 512 423.3 512 374.86 512 306.29 427.82 272 337.46 272zM112 432H64c-7.25 0-16-10.2-16-22.86 0-11.15 7.33-20.57 16-20.57h48V432zm240.66 25.52c-18.68 4.3-38.65 6.48-59.36 6.48-7.94 0-15.89-.32-23.83-.92-20.4-1.55-42.73-6.08-70.26-14.27l-.85-.25-.86-.22-37.5-9.66v-51.97c49.84-5.52 75.43-23.37 96.38-38.34l4.08-2.91c21.18-14.99 52.84-25.46 77-25.46 62.2 0 126.54 20.52 126.54 54.86 0 27.57-29.25 63.77-111.34 82.66z"/>
  <path id="stairs" d="M453.946,42.138V72.4h-129.12v109.396H215.879v121.064H102.895v108.947H0v-30.264h72.631V272.599h112.984V151.534h108.947
  V42.138H453.946z M173.419,85.298L90.541,96.132c-1.212,0.154-2.155,1.103-2.323,2.308c-0.171,1.203,0.482,2.373,1.596,2.861
  l33.277,14.431l-55.218,55.212c-1.052,1.064-1.058,2.772,0,3.831l19.115,19.115c1.052,1.058,2.767,1.052,3.824,0l55.219-55.219
  l14.431,33.272c0.481,1.111,1.652,1.773,2.855,1.602c0.605-0.089,1.138-0.37,1.537-0.769c0.408-0.405,0.686-0.949,0.768-1.561
  l10.835-82.881c0.109-0.833-0.169-1.664-0.769-2.261C175.097,85.487,174.255,85.197,173.419,85.298z"/>
  <path id="flame" d="M216 24.01c0-23.8-31.16-33.11-44.15-13.04C76.55 158.25 200 238.73 200 288c0 22.06-17.94 40-40 40s-40-17.94-40-40V182.13c0-19.39-21.85-30.76-37.73-19.68C30.75 198.38 0 257.28 0 320c0 105.87 86.13 192 192 192s192-86.13 192-192c0-170.29-168-192.85-168-295.99zM192 480c-88.22 0-160-71.78-160-160 0-46.94 20.68-97.75 56-128v96c0 39.7 32.3 72 72 72s72-32.3 72-72c0-65.11-112-128-45.41-248C208 160 352 175.3 352 320c0 88.22-71.78 160-160 160z"></path>
  <path id="scale" d="M448 64h-64.81C353.95 25.38 308.07 0 256 0s-97.95 25.38-127.19 64H64C28.71 64 0 92.71 0 128v320c0 35.29 28.71 64 64 64h384c35.29 0 64-28.71 64-64V128c0-35.29-28.71-64-64-64zM256 32c70.69 0 128 57.31 128 128s-57.31 128-128 128-128-57.31-128-128S185.31 32 256 32zm224 416c0 17.67-14.33 32-32 32H64c-17.67 0-32-14.33-32-32V128c0-17.67 14.33-32 32-32h45.56C100.94 115.63 96 137.22 96 160c0 88.22 71.78 160 160 160s160-71.78 160-160c0-22.78-4.94-44.37-13.56-64H448c17.67 0 32 14.33 32 32v320zM256 256c26.47 0 48-21.53 48-48 0-13.92-6.05-26.36-15.54-35.13l30.24-70.57c3.48-8.11-.28-17.52-8.41-21-8.08-3.48-17.52.27-21 8.41l-30.26 70.6C223.57 158 208 188.65 208 208c0 26.47 21.53 48 48 48zm0-64c8.84 0 16 7.16 16 16s-7.16 16-16 16-16-7.16-16-16 7.16-16 16-16z"></path>
</svg>
